<svg id="visual" viewBox="0 0 1280 3450" width="1280" height="3450" xmlns="http://www.w3.org/2000/svg" xmlns:xlink="http://www.w3.org/1999/xlink" version="1.1"><rect x="0" y="0" width="1280" height="3450" fill="#001220"></rect><defs><linearGradient id="grad1_0" x1="0%" y1="0%" x2="100%" y2="100%"><stop offset="30%" stop-color="#fbae3c" stop-opacity="1"></stop><stop offset="70%" stop-color="#fbae3c" stop-opacity="1"></stop></linearGradient></defs><defs><linearGradient id="grad1_1" x1="0%" y1="0%" x2="100%" y2="100%"><stop offset="30%" stop-color="#fbae3c" stop-opacity="1"></stop><stop offset="70%" stop-color="#96446e" stop-opacity="1"></stop></linearGradient></defs><defs><linearGradient id="grad1_2" x1="0%" y1="0%" x2="100%" y2="100%"><stop offset="30%" stop-color="#001220" stop-opacity="1"></stop><stop offset="70%" stop-color="#96446e" stop-opacity="1"></stop></linearGradient></defs><defs><linearGradient id="grad2_0" x1="0%" y1="0%" x2="100%" y2="100%"><stop offset="30%" stop-color="#fbae3c" stop-opacity="1"></stop><stop offset="70%" stop-color="#fbae3c" stop-opacity="1"></stop></linearGradient></defs><defs><linearGradient id="grad2_1" x1="0%" y1="0%" x2="100%" y2="100%"><stop offset="30%" stop-color="#96446e" stop-opacity="1"></stop><stop offset="70%" stop-color="#fbae3c" stop-opacity="1"></stop></linearGradient></defs><defs><linearGradient id="grad2_2" x1="0%" y1="0%" x2="100%" y2="100%"><stop offset="30%" stop-color="#96446e" stop-opacity="1"></stop><stop offset="70%" stop-color="#001220" stop-opacity="1"></stop></linearGradient></defs><g transform="translate(1280, 0)"><path d="M0 934C-88.5 950.2 -177 966.5 -251.1 936.9C-325.1 907.4 -384.7 832.1 -452 782.9C-519.3 733.7 -594.4 710.6 -673.2 673.2C-752 635.7 -834.5 583.9 -886.8 512C-939.2 440.1 -961.3 348.3 -968.8 259.6C-976.3 170.9 -969.2 85.5 -962 0L0 0Z" fill="#3d3056"></path><path d="M0 622.7C-59 633.5 -118 644.3 -167.4 624.6C-216.7 604.9 -256.5 554.7 -301.3 521.9C-346.2 489.1 -396.3 473.7 -448.8 448.8C-501.3 423.8 -556.3 389.2 -591.2 341.3C-626.1 293.4 -640.9 232.2 -645.9 173.1C-650.9 114 -646.1 57 -641.3 0L0 0Z" fill="#e1685e"></path><path d="M0 311.3C-29.5 316.7 -59 322.2 -83.7 312.3C-108.4 302.5 -128.2 277.4 -150.7 261C-173.1 244.6 -198.1 236.9 -224.4 224.4C-250.7 211.9 -278.2 194.6 -295.6 170.7C-313.1 146.7 -320.4 116.1 -322.9 86.5C-325.4 57 -323.1 28.5 -320.7 0L0 0Z" fill="#fbae3c"></path></g><g transform="translate(0, 3450)"><path d="M0 -883C70.9 -865.3 141.7 -847.5 227.8 -850C313.8 -852.5 415 -875.2 489.5 -847.8C564 -820.5 611.6 -743 684.5 -684.5C757.3 -626 855.3 -586.5 886.8 -512C918.3 -437.5 883.4 -328 883.8 -236.8C884.3 -145.7 920.1 -72.8 956 0L0 0Z" fill="#3d3056"></path><path d="M0 -588.7C47.2 -576.8 94.5 -565 151.8 -566.7C209.2 -568.3 276.7 -583.5 326.3 -565.2C376 -547 407.8 -495.3 456.3 -456.3C504.9 -417.3 570.2 -391 591.2 -341.3C612.2 -291.7 588.9 -218.7 589.2 -157.9C589.5 -97.1 613.4 -48.6 637.3 0L0 0Z" fill="#e1685e"></path><path d="M0 -294.3C23.6 -288.4 47.2 -282.5 75.9 -283.3C104.6 -284.2 138.3 -291.7 163.2 -282.6C188 -273.5 203.9 -247.7 228.2 -228.2C252.4 -208.7 285.1 -195.5 295.6 -170.7C306.1 -145.8 294.5 -109.3 294.6 -78.9C294.8 -48.6 306.7 -24.3 318.7 0L0 0Z" fill="#fbae3c"></path></g></svg>